<mxfile host="app.diagrams.net" agent="Mozilla/5.0 (Windows NT 10.0; Win64; x64) AppleWebKit/537.36 (KHTML, like Gecko) Chrome/132.0.0.0 Safari/537.36" version="26.0.14">
  <diagram name="Page-1" id="cEh69xNHG-fxVZvTW5n-">
    <mxGraphModel dx="521" dy="557" grid="1" gridSize="10" guides="1" tooltips="1" connect="1" arrows="1" fold="1" page="1" pageScale="1" pageWidth="827" pageHeight="1169" math="0" shadow="0">
      <root>
        <mxCell id="0" />
        <mxCell id="1" parent="0" />
        <mxCell id="nz1jDX_mqMzVPb85zMXZ-42" value="" style="ellipse;html=1;shape=startState;fillColor=#000000;strokeColor=#ff0000;" vertex="1" parent="1">
          <mxGeometry x="224" y="200" width="30" height="30" as="geometry" />
        </mxCell>
        <mxCell id="nz1jDX_mqMzVPb85zMXZ-43" value="" style="edgeStyle=orthogonalEdgeStyle;html=1;verticalAlign=bottom;endArrow=open;endSize=8;strokeColor=#ff0000;rounded=0;" edge="1" source="nz1jDX_mqMzVPb85zMXZ-42" parent="1">
          <mxGeometry relative="1" as="geometry">
            <mxPoint x="239" y="290" as="targetPoint" />
          </mxGeometry>
        </mxCell>
        <mxCell id="nz1jDX_mqMzVPb85zMXZ-44" value="Nhap vao acc" style="whiteSpace=wrap;html=1;align=center;" vertex="1" parent="1">
          <mxGeometry x="190" y="290" width="100" height="40" as="geometry" />
        </mxCell>
      </root>
    </mxGraphModel>
  </diagram>
</mxfile>
